<svg width="18" height="19" viewBox="0 0 18 19" fill="none" xmlns="http://www.w3.org/2000/svg">
<g id="Icon/Fill/star">
<path id="Mask" fill-rule="evenodd" clip-rule="evenodd" d="M13.0439 16.5637C12.9266 16.5637 12.8084 16.536 12.7 16.479L8.91244 14.4825L5.12563 16.479C4.87456 16.6102 4.5715 16.5877 4.3442 16.4198C4.11541 16.2519 4.00176 15.9679 4.05005 15.6869L4.77131 11.4691L1.71096 8.48268C1.50743 8.28408 1.43389 7.98581 1.5208 7.71302C1.60771 7.44173 1.84021 7.24313 2.12098 7.20266L6.35497 6.58214L8.24763 2.7406C8.4987 2.231 9.32693 2.231 9.578 2.7406L11.4707 6.58214L15.7046 7.20266C15.9854 7.24313 16.2179 7.44173 16.3048 7.71302C16.3917 7.98581 16.3182 8.28408 16.1147 8.48268L13.0543 11.4691L13.7756 15.6869C13.8239 15.9679 13.7095 16.2519 13.4814 16.4198C13.3522 16.5157 13.1984 16.5637 13.0439 16.5637Z" fill="#231F20"/>
<mask id="mask0_1832_530" style="mask-type:luminance" maskUnits="userSpaceOnUse" x="1" y="2" width="16" height="15">
<path id="Mask_2" fill-rule="evenodd" clip-rule="evenodd" d="M13.0439 16.5637C12.9266 16.5637 12.8084 16.536 12.7 16.479L8.91244 14.4825L5.12563 16.479C4.87456 16.6102 4.5715 16.5877 4.3442 16.4198C4.11541 16.2519 4.00176 15.9679 4.05005 15.6869L4.77131 11.4691L1.71096 8.48268C1.50743 8.28408 1.43389 7.98581 1.5208 7.71302C1.60771 7.44173 1.84021 7.24313 2.12098 7.20266L6.35497 6.58214L8.24763 2.7406C8.4987 2.231 9.32693 2.231 9.578 2.7406L11.4707 6.58214L15.7046 7.20266C15.9854 7.24313 16.2179 7.44173 16.3048 7.71302C16.3917 7.98581 16.3182 8.28408 16.1147 8.48268L13.0543 11.4691L13.7756 15.6869C13.8239 15.9679 13.7095 16.2519 13.4814 16.4198C13.3522 16.5157 13.1984 16.5637 13.0439 16.5637Z" fill="white"/>
</mask>
<g mask="url(#mask0_1832_530)">
<g id="&#240;&#159;&#142;&#168; Color">
<rect id="Base" x="-0.000732422" y="0.825195" width="17.8273" height="17.9861" fill="#FFB444"/>
</g>
</g>
</g>
</svg>
